Coordinates
version=1
nRows=29
nColumns=22
inDegrees=yes

Units are S.I. units (second, meters, Newtons, ...)
If the header above contains a line with 'inDegrees', this indicates whether rotational values are in degrees (yes) or radians (no).

endheader
time	pelvis_tilt	pelvis_list	pelvis_rotation	pelvis_tx	pelvis_ty	pelvis_tz	hip_flexion_r	hip_adduction_r	hip_rotation_r	knee_angle_r	ankle_angle_r	subtalar_angle_r	hip_flexion_l	hip_adduction_l	hip_rotation_l	knee_angle_l	ankle_angle_l	subtalar_angle_l	lumbar_extension	lumbar_bending	lumbar_rotation
      3.84000000	      3.61030605	     -4.48109194	    -83.83907658	      0.56269183	      1.01126809	      0.75765266	      1.75674507	     -9.01596537	      0.06312455	    -59.57998146	     -7.14839322	      7.85533519	      8.79441953	      0.63706538	     -0.40827354	    -12.97185315	      2.11819867	      6.00548649	     -1.23672593	     -6.82338904	      5.62310051
      3.85000000	      3.52602081	     -4.42939587	    -83.98577309	      0.56641703	      1.01241285	      0.76350502	      2.93233499	     -9.18436872	     -0.57279984	    -60.13807542	     -5.64071724	      7.03716023	      8.41010680	      0.77602983	     -0.50616771	    -12.85404042	      2.16245662	      5.45444677	     -1.43249990	     -6.82114033	      5.15723002
      3.86000000	      3.42895823	     -4.39032544	    -84.10633399	      0.57002664	      1.01351757	      0.76921395	      4.02132260	     -9.35030357	     -1.30709607	    -60.41023717	     -4.08921515	      6.26689174	      8.03672538	      0.89177260	     -0.59302638	    -12.75914398	      2.29237650	      4.99845687	     -1.64102398	     -6.79938461	      4.67724086
      3.87000000	      3.27101908	     -4.36164504	    -84.24737680	      0.57341886	      1.01460898	      0.77476730	      5.03917988	     -9.43551799	     -2.07212343	    -60.39591531	     -2.57362847	      5.38496539	      7.66816484	      0.92630628	     -0.69182313	    -12.66153377	      2.36192428	      4.50431632	     -1.85179645	     -6.70650379	      4.24520665
      3.88000000	      3.12216905	     -4.33698374	    -84.39476482	      0.57665640	      1.01564299	      0.78016326	      5.99116697	     -9.52405797	     -2.86513089	    -60.13269448	     -1.11598641	      4.60728581	      7.30139732	      0.96182320	     -0.78974929	    -12.56144203	      2.48531975	      4.07456717	     -2.06892914	     -6.61891662	      3.81894548
      3.89000000	      2.95364910	     -4.31772735	    -84.56912665	      0.57971200	      1.01664900	      0.78545359	      6.86995417	     -9.58228623	     -3.67723671	    -59.60994835	      0.24665943	      3.88637758	      6.92964859	      0.96470250	     -0.92127591	    -12.44935218	      2.60205459	      3.65476366	     -2.27834519	     -6.50855095	      3.46879250
      3.90000000	      2.76831517	     -4.30220218	    -84.77717320	      0.58258030	      1.01763108	      0.79061351	      7.68182325	     -9.60109577	     -4.47997765	    -58.84433241	      1.49315138	      3.18384883	      6.55501851	      0.93930168	     -1.09450743	    -12.32093242	      2.64831574	      3.21283502	     -2.48481446	     -6.37606095	      3.17894083
      3.91000000	      2.58229071	     -4.28756825	    -84.99622317	      0.58529370	      1.01856554	      0.79567047	      8.41801262	     -9.59890416	     -5.28867080	    -57.85124956	      2.67578823	      2.56890059	      6.18114212	      0.90710646	     -1.27695645	    -12.18614609	      2.72658053	      2.78438247	     -2.68542780	     -6.24412895	      2.92348280
      3.92000000	      2.38288696	     -4.27831095	    -85.23332391	      0.58784891	      1.01946290	      0.80062438	      9.07712231	     -9.55203371	     -6.08199462	    -56.64443944	      3.79081636	      2.02281708	      5.80422278	      0.85372901	     -1.47709683	    -12.04424206	      2.81961499	      2.36280452	     -2.88270864	     -6.09579578	      2.70799097
      3.93000000	      2.16373839	     -4.26625088	    -85.49008660	      0.59022044	      1.02030901	      0.80548639	      9.66680168	     -9.44540523	     -6.84393529	    -55.23854526	      4.86838817	      1.58462532	      5.43199628	      0.76940265	     -1.70195712	    -11.89537121	      2.93967022	      1.98518397	     -3.06481821	     -5.93118058	      2.52411666
      3.94000000	      1.92329957	     -4.24810732	    -85.75046873	      0.59242694	      1.02110013	      0.81023238	     10.18568305	     -9.26637792	     -7.56291405	    -53.64723273	      5.91565550	      1.23727874	      5.07958867	      0.65398623	     -1.93760019	    -11.75682167	      3.07086428	      1.64305958	     -3.23269109	     -5.74996001	      2.39011841
      3.95000000	      1.66005271	     -4.22786221	    -86.00336448	      0.59446102	      1.02186324	      0.81486110	     10.62368203	     -8.99113518	     -8.19457913	    -51.87796185	      6.88240768	      0.93993256	      4.72811952	      0.50382997	     -2.19053751	    -11.59439107	      3.17786879	      1.28211418	     -3.39415836	     -5.54792323	      2.22308467
      3.96000000	      1.38124270	     -4.18452287	    -86.25676437	      0.59630387	      1.02253127	      0.81936236	     11.01457438	     -8.63128041	     -8.71312780	    -49.97256095	      7.81494953	      0.81559966	      4.42072028	      0.32566531	     -2.44103853	    -11.45965267	      3.36125298	      1.02592905	     -3.52115375	     -5.34111963	      2.08681301
      3.97000000	      1.08693714	     -4.12614453	    -86.49767940	      0.59798598	      1.02314025	      0.82372958	     11.33886253	     -8.17725625	     -9.08249179	    -47.93412157	      8.66577105	      0.80931507	      4.14771399	      0.12004077	     -2.68649203	    -11.34537119	      3.58087639	      0.81847688	     -3.62675364	     -5.12504055	      1.96045250
      3.98000000	      0.78053175	     -4.05790693	    -86.72631550	      0.59948698	      1.02370131	      0.82795965	     11.59482137	     -7.62732120	     -9.25691317	    -45.79202441	      9.42779965	      0.92390405	      3.89898788	     -0.11149927	     -2.93071442	    -11.23983461	      3.80161685	      0.64525501	     -3.71733037	     -4.90397716	      1.81183333
      3.99000000	      0.47402737	     -3.97413302	    -86.93936351	      0.60084121	      1.02419994	      0.83205735	     11.78829599	     -7.00801738	     -9.22102137	    -43.57547778	     10.11431496	      1.16056505	      3.68601556	     -0.35382162	     -3.17016890	    -11.15599264	      4.04253001	      0.52026501	     -3.78556568	     -4.69024798	      1.66896499
      4.00000000	      0.17433339	     -3.87577048	    -87.13374019	      0.60206969	      1.02463133	      0.83602818	     11.92130716	     -6.33895846	     -8.95760736	    -41.31989335	     10.73527155	      1.49303975	      3.50724024	     -0.59816272	     -3.40574881	    -11.09275191	      4.31392938	      0.44570965	     -3.83196146	     -4.48897137	      1.52512970
      4.01000000	     -0.09976201	     -3.77526111	    -87.30411445	      0.60322469	      1.02502581	      0.83992699	     11.97821892	     -5.66548634	     -8.48334150	    -39.05899971	     11.31284646	      1.98856170	      3.32490085	     -0.81923196	     -3.61336875	    -11.00851472	      4.57450077	      0.43503025	     -3.86363307	     -4.31715269	      1.38950388
      4.02000000	     -0.35982867	     -3.64810468	    -87.44310508	      0.60431491	      1.02530549	      0.84369947	     12.00503428	     -4.98596903	     -7.80183338	    -36.84998151	     11.83254115	      2.32224405	      3.21426530	     -1.03248139	     -3.83818302	    -10.99081577	      4.90760364	      0.42614525	     -3.86095165	     -4.15998731	      1.22925342
      4.03000000	     -0.58748097	     -3.53328632	    -87.54935780	      0.60541304	      1.02556902	      0.84745172	     11.95729294	     -4.35323423	     -6.97730553	    -34.72606132	     12.29971687	      2.70662485	      3.07773356	     -1.20954365	     -4.01596378	    -10.94551123	      5.21525759	      0.44988202	     -3.85238462	     -4.02821243	      1.06684878
      4.04000000	     -0.77994685	     -3.42933199	    -87.60365670	      0.60653643	      1.02579709	      0.85114264	     11.85739265	     -3.78615932	     -6.06526286	    -32.74531401	     12.70544816	      3.07309938	      2.93421573	     -1.34676564	     -4.13364078	    -10.89634235	      5.50279493	      0.48122133	     -3.84855809	     -3.93240192	      0.89229430
      4.05000000	     -0.93228891	     -3.34757440	    -87.60413269	      0.60774410	      1.02601046	      0.85479650	     11.70583587	     -3.31066080	     -5.14620082	    -30.94447184	     13.03370272	      3.42610390	      2.76534060	     -1.43416522	     -4.16889073	    -10.83757243	      5.75277702	      0.50933793	     -3.85742718	     -3.86435867	      0.70029227
      4.06000000	     -1.07796884	     -3.25264711	    -87.54356322	      0.60901655	      1.02615222	      0.85843703	     11.54984031	     -2.89807057	     -4.31327695	    -29.34358045	     13.24928474	      3.62588322	      2.61651962	     -1.51157920	     -4.16674410	    -10.77491932	      5.99248001	      0.47648212	     -3.83381136	     -3.79523148	      0.48464709
      4.07000000	     -1.20641750	     -3.17365232	    -87.43078180	      0.61037884	      1.02627740	      0.86206997	     11.36390719	     -2.56432412	     -3.62705166	    -27.94648003	     13.33851631	      3.79132277	      2.44565396	     -1.56461483	     -4.09602602	    -10.69497661	      6.20146675	      0.41392336	     -3.81250937	     -3.72746626	      0.25323726
      4.08000000	     -1.32778857	     -3.10050857	    -87.26696665	      0.61182446	      1.02637838	      0.86572341	     11.15573359	     -2.29931252	     -3.15276240	    -26.73675028	     13.28190904	      3.93496833	      2.25622641	     -1.60611114	     -3.97172206	    -10.58359928	      6.38758827	      0.32725991	     -3.77559237	     -3.65343350	      0.00884198
      4.09000000	     -1.43115323	     -3.05436799	    -87.05563801	      0.61334059	      1.02649114	      0.86937681	     10.89960534	     -2.10921678	     -2.92266462	    -25.69108109	     13.07253804	      4.08835992	      2.03344280	     -1.62708618	     -3.79521859	    -10.45740444	      6.54779598	      0.21424164	     -3.75527989	     -3.58734761	     -0.23796001
      4.10000000	     -1.52563118	     -3.01600728	    -86.81114771	      0.61489414	      1.02659589	      0.87304462	     10.60769931	     -1.97803266	     -2.94835559	    -24.77237139	     12.70859040	      4.24100812	      1.78737239	     -1.63891050	     -3.58123399	    -10.29834393	      6.68994151	      0.08881712	     -3.72574166	     -3.52163292	     -0.47644288
      4.11000000	     -1.61391515	     -2.97777747	    -86.54232903	      0.61645227	      1.02668744	      0.87672923	     10.28239467	     -1.89616460	     -3.22183132	    -23.94645749	     12.17182320	      4.38171558	      1.52163344	     -1.64770413	     -3.34448499	    -10.09979559	      6.81537363	     -0.03101071	     -3.67592927	     -3.45720127	     -0.69911492
      4.12000000	     -1.68932773	     -2.93899558	    -86.26277599	      0.61798525	      1.02676490	      0.88040785	      9.92147036	     -1.86137072	     -3.70514845	    -23.18533655	     11.48867852	      4.49277681	      1.23788944	     -1.64796988	     -3.10331996	     -9.86389383	      6.92331142	     -0.13810626	     -3.60964984	     -3.40318755	     -0.89455344
